<svg width="21" height="23" viewBox="0 0 21 23" fill="none" xmlns="http://www.w3.org/2000/svg">
<path d="M10.4962 23C5.4583 23 1.05191 19.574 0.0148434 14.8527C-0.0635129 14.4946 0.176165 14.141 0.54951 14.0658C0.922855 13.9863 1.29159 14.2205 1.36995 14.5786C2.27335 18.6898 6.1082 21.6694 10.4962 21.6694C14.8841 21.6694 18.7512 18.6677 19.6316 14.53C19.7099 14.1719 20.0694 13.942 20.4474 14.0128C20.8207 14.0879 21.0604 14.4372 20.9867 14.7952C19.9727 19.5475 15.5617 22.9956 10.4962 22.9956V23Z" fill="white"/>
<path d="M10.5 20C8.49501 20 6.6134 19.2319 5.19888 17.8347C3.77996 16.4374 3 14.5845 3 12.6145V7.38555C3 3.31091 6.36222 0 10.5 0C12.505 0 14.3866 0.768062 15.8011 2.16533C17.22 3.55826 18 5.41115 18 7.38555V12.6145C18 16.6847 14.6334 20 10.5 20ZM10.5 1.3018C7.09371 1.3018 4.32197 4.03124 4.32197 7.38555V12.6145C4.32197 14.2374 4.96533 15.7648 6.13308 16.9147C7.29642 18.0647 8.84753 18.6982 10.5 18.6982C13.9063 18.6982 16.678 15.9688 16.678 12.6145V7.38555C16.678 5.7583 16.0347 4.23085 14.8669 3.08527C13.7036 1.93534 12.1525 1.3018 10.5 1.3018Z" fill="white"/>
<path d="M10.5 13C10.2233 13 10 12.7009 10 12.3304V7.66964C10 7.29911 10.2233 7 10.5 7C10.7767 7 11 7.29911 11 7.66964V12.3304C11 12.7009 10.7767 13 10.5 13Z" fill="white"/>
<path d="M7.5 12C7.22333 12 7 11.7349 7 11.4065V8.59347C7 8.26508 7.22333 8 7.5 8C7.77667 8 8 8.26508 8 8.59347V11.4065C8 11.7349 7.77667 12 7.5 12Z" fill="white"/>
<path d="M13.5 12C13.2233 12 13 11.7349 13 11.4065V8.59347C13 8.26508 13.2233 8 13.5 8C13.7767 8 14 8.26508 14 8.59347V11.4065C14 11.7349 13.7767 12 13.5 12Z" fill="white"/>
</svg>
