<svg width="25" height="17" viewBox="0 0 25 17" fill="none" xmlns="http://www.w3.org/2000/svg">
<path d="M23.7563 13.7779C23.5447 15.1119 22.8363 15.9951 21.5023 15.8847C20.1682 15.7743 17.2886 12.3059 17.2886 12.3059C17.0494 12.0115 16.5434 11.7815 16.1754 11.7815H8.82458C8.45658 11.7815 7.95977 12.0207 7.72057 12.3059C7.72057 12.3059 4.83175 15.7743 3.49775 15.8847C2.16374 15.9951 1.46453 15.1119 1.24373 13.7779C1.24373 13.7779 0.0201247 8.34986 3.05614 3.35423C6.10136 -1.6322 10.6738 1.83622 10.6738 1.83622C10.9682 2.06622 11.5202 2.25022 11.8882 2.25022H13.1118C13.489 2.24102 14.0318 2.05702 14.3354 1.83622C14.3354 1.83622 18.9078 -1.6322 21.9439 3.35423C24.9799 8.34986 23.7563 13.7779 23.7563 13.7779V13.7779Z" stroke="white" stroke-miterlimit="10"/>
<path d="M17.8866 5.0746C17.8866 5.645 17.4174 6.1142 16.847 6.1142C16.2766 6.1142 15.8166 5.645 15.8166 5.0746C15.8166 4.50419 16.2766 4.04419 16.847 4.04419C17.4174 4.04419 17.8866 4.50419 17.8866 5.0746Z" fill="white"/>
<path d="M20.4534 6.61102C20.4534 7.17222 19.9934 7.64142 19.423 7.64142C18.8526 7.64142 18.3834 7.17222 18.3834 6.61102C18.3834 6.04981 18.8526 5.57141 19.423 5.57141C19.9934 5.57141 20.4534 6.03141 20.4534 6.61102Z" fill="white"/>
<path d="M17.8866 7.92652C17.8866 8.49693 17.4174 8.96613 16.847 8.96613C16.2766 8.96613 15.8166 8.49693 15.8166 7.92652C15.8166 7.35612 16.2766 6.89612 16.847 6.89612C17.4174 6.89612 17.8866 7.35612 17.8866 7.92652Z" fill="white"/>
<path d="M9.06378 5.7002H8.21737V4.85379C8.21737 4.41219 7.85857 4.04419 7.40777 4.04419C6.95697 4.04419 6.59816 4.40299 6.59816 4.85379V5.7002H5.75176C5.31016 5.7002 4.94215 6.059 4.94215 6.5098C4.94215 6.96061 5.30096 7.31941 5.75176 7.31941H6.59816V8.16581C6.59816 8.60742 6.95697 8.97542 7.40777 8.97542C7.85857 8.97542 8.21737 8.61662 8.21737 8.16581V7.31941H9.06378C9.50538 7.31941 9.87338 6.96061 9.87338 6.5098C9.87338 6.059 9.51458 5.7002 9.06378 5.7002Z" fill="white"/>
</svg>
