<svg width="224" height="51" viewBox="0 0 224 51" fill="none" xmlns="http://www.w3.org/2000/svg">
<g filter="url(#filter0_d_610_37)">
<path d="M61.5058 32.7704C60.1405 32.7704 59.4587 33.2492 59.4587 34.2051C59.4587 34.7 59.6207 35.0506 59.9429 35.2607C60.2651 35.4707 60.9771 35.7288 62.0789 36.035C63.1808 36.3412 63.9569 36.7061 64.409 37.1315C64.8611 37.5569 65.0854 38.2262 65.0854 39.1394C65.0854 40.3 64.7543 41.1686 64.0939 41.7436C63.4335 42.3185 62.5329 42.6069 61.3936 42.6069C60.4805 42.6069 59.4694 42.5001 58.3622 42.2847L57.7819 42.1725L57.9599 40.7378C59.4107 40.9319 60.5179 41.028 61.2815 41.028C62.6147 41.028 63.2805 40.437 63.2805 39.2551C63.2805 38.7923 63.1292 38.4523 62.8283 38.2316C62.5275 38.0108 61.8493 37.7687 60.7973 37.5053C59.7435 37.2419 58.9585 36.8787 58.4441 36.4177C57.9279 35.9549 57.6698 35.2251 57.6698 34.2247C57.6698 33.2243 57.9955 32.4696 58.6453 31.9587C59.295 31.4478 60.1957 31.1933 61.3456 31.1933C62.1733 31.1933 63.1505 31.2894 64.2791 31.4834L64.8433 31.5796L64.6974 33.0303C63.1932 32.8576 62.1288 32.7722 61.5058 32.7722V32.7704Z" fill="white"/>
<path d="M82.8092 32.9805V31.3838H90.871V32.9805H87.7595V42.4289H85.9527V32.9805H82.8092V32.9805Z" fill="white"/>
<path d="M110.916 38.8973C110.916 40.3267 111.669 41.0423 113.173 41.0423C114.677 41.0423 115.43 40.3285 115.43 38.8973V31.3838H117.235V38.8653C117.235 40.1665 116.893 41.1135 116.212 41.7115C115.528 42.3079 114.513 42.6069 113.164 42.6069C111.815 42.6069 110.802 42.3096 110.126 41.7115C109.449 41.1152 109.109 40.1665 109.109 38.8653V31.3838H110.914V38.8973H110.916Z" fill="white"/>
<path d="M140.363 42.4289H136.541V31.3838H140.363C142.061 31.3838 143.222 31.8146 143.845 32.6743C144.468 33.5341 144.779 34.8833 144.779 36.7203C144.779 37.6548 144.717 38.4487 144.594 39.0985C144.47 39.7499 144.252 40.3374 143.941 40.8643C143.329 41.9074 142.134 42.4289 140.361 42.4289H140.363ZM142.926 36.7203C142.926 35.3871 142.759 34.4259 142.426 33.8349C142.093 33.2439 141.404 32.9484 140.363 32.9484H138.332V40.8482H140.363C141.428 40.8482 142.136 40.4566 142.492 39.6716C142.663 39.2747 142.779 38.8492 142.839 38.3971C142.898 37.945 142.928 37.3878 142.928 36.7203H142.926Z" fill="white"/>
<path d="M163.73 42.4289V31.3838H165.518V42.4289H163.73Z" fill="white"/>
<path d="M192.426 41.2523C191.765 42.1548 190.601 42.6069 188.935 42.6069C187.269 42.6069 186.103 42.153 185.435 41.2452C184.77 40.3374 184.435 38.9098 184.435 36.9642C184.435 35.0186 184.771 33.5732 185.442 32.628C186.114 31.6828 187.278 31.2094 188.933 31.2094C190.589 31.2094 191.749 31.6793 192.415 32.6191C193.081 33.5608 193.415 35.0079 193.415 36.9642C193.415 38.9205 193.084 40.3498 192.424 41.2523H192.426ZM186.838 40.0917C187.203 40.7254 187.902 41.0423 188.935 41.0423C189.967 41.0423 190.663 40.7308 191.023 40.1077C191.382 39.4847 191.562 38.4398 191.562 36.9713C191.562 35.5028 191.377 34.4383 191.007 33.7708C190.637 33.1051 189.946 32.7722 188.935 32.7722C187.924 32.7722 187.231 33.1051 186.854 33.7708C186.478 34.4383 186.29 35.4992 186.29 36.9553C186.29 38.4114 186.473 39.4562 186.838 40.0917V40.0917Z" fill="white"/>
<path d="M215.591 32.7704C214.226 32.7704 213.544 33.2492 213.544 34.2051C213.544 34.7 213.706 35.0506 214.028 35.2607C214.35 35.4707 215.062 35.7288 216.164 36.035C217.266 36.3412 218.042 36.7061 218.494 37.1315C218.946 37.5569 219.171 38.2262 219.171 39.1394C219.171 40.3 218.839 41.1686 218.179 41.7436C217.519 42.3185 216.618 42.6069 215.479 42.6069C214.566 42.6069 213.554 42.5001 212.447 42.2847L211.867 42.1725L212.045 40.7378C213.496 40.9319 214.603 41.028 215.367 41.028C216.7 41.028 217.366 40.437 217.366 39.2551C217.366 38.7923 217.214 38.4523 216.913 38.2316C216.613 38.0108 215.934 37.7687 214.882 37.5053C213.829 37.2419 213.044 36.8787 212.529 36.4177C212.013 35.9549 211.755 35.2251 211.755 34.2247C211.755 33.2243 212.081 32.4696 212.73 31.9587C213.38 31.4478 214.281 31.1933 215.431 31.1933C216.258 31.1933 217.236 31.2894 218.364 31.4834L218.928 31.5796L218.782 33.0303C217.278 32.8576 216.214 32.7722 215.591 32.7722V32.7704Z" fill="white"/>
<path d="M52.8317 7.05427V0H71.4935V7.05427H66.6394V25.0077H57.9795V7.05427H52.8317Z" fill="white"/>
<path d="M87.9891 25.0077H79.3293V17.1702L72.2002 0H81.3834L83.7348 7.35332L86.161 0H95.3068L87.9891 17.1702V25.0077V25.0077Z" fill="white"/>
<path d="M106.934 18.5497H104.805V25.0077H96.1488V0H106.674C110.531 0 113.292 0.640812 114.96 1.92244C116.628 3.20406 117.459 5.58041 117.459 9.05147C117.459 12.5225 116.539 15.0057 114.699 16.4974L117.162 25.0077H108.353L106.934 18.5497V18.5497ZM106.898 11.7197C108.116 11.7197 108.726 10.9045 108.726 9.27398C108.726 7.64347 108.039 6.82821 106.672 6.82821H104.768V11.718H106.897L106.898 11.7197Z" fill="white"/>
<path d="M118.606 25.0077L124.127 0H137.228L142.866 25.0077H134.129L133.421 22.1347H127.711L127.113 25.0077H118.604H118.606ZM130.249 6.79261L128.83 15.5272H132.527L131.185 6.79261H130.249V6.79261Z" fill="white"/>
<path d="M144.08 25.0077V0H152.588L158.338 9.48046H158.861V0H167.521V25.0077H158.973L153.299 14.8188H152.736V25.0077H144.08Z" fill="white"/>
<path d="M170.396 25.0077V0H178.904L184.654 9.48046H185.177V0H193.837V25.0077H185.289L179.615 14.8188H179.052V25.0077H170.396V25.0077Z" fill="white"/>
<path d="M201.392 0.836609C200.47 1.3012 199.677 1.88327 199.024 2.5935C197.135 4.64766 196.19 7.94428 196.19 12.4851C196.19 17.026 197.141 20.3298 199.045 22.3946C200.947 24.4594 203.973 25.4919 208.115 25.4919C212.257 25.4919 215.274 24.4666 217.163 22.4142C219.055 20.36 220 17.0581 220 12.5047C220 9.66736 219.633 7.31415 218.898 5.44868L201.392 0.840169V0.836609ZM208.419 19.8812C208.321 20.1037 208.008 20.1037 207.91 19.8812C207.372 18.6565 206.175 15.5806 206.178 12.5029C206.182 9.42705 207.374 6.35293 207.91 5.12649C208.008 4.90221 208.321 4.90221 208.419 5.12649C208.955 6.35293 210.148 9.42705 210.151 12.5029C210.155 15.5806 208.957 18.6583 208.419 19.8812Z" fill="white"/>
<path d="M46.4271 42.4289H14.7817L15.734 39.28L20.775 41.6741L22.879 38.8136L25.1415 37.5374C25.1415 37.5374 27.557 38.0108 28.1978 37.8382C29.2925 37.5694 28.9329 39.1234 28.9134 39.7393C31.1954 38.3188 29.7624 35.5402 27.824 35.3693C27.5018 35.3408 26.8289 35.5188 26.8289 35.5188L26.9589 34.5843C26.9589 34.5843 28.9614 33.7192 29.1003 33.2866C29.531 31.8875 30.9782 32.1937 32.0978 32.9787C31.8362 31.0936 30.1932 30.8889 29.0291 31.1506C28.5965 30.4475 25.5171 32.644 25.5171 32.644L24.6377 32.6565L21.3678 36.0653L18.5785 36.7541L16.4567 33.9257L20.0559 31.7149L20.7555 28.5233L26.3252 29.5539L30.4317 28.3648L39.1859 29.8779L42.3704 28.2118L43.9244 24.6713L42.8546 19.324L42.5716 24.584L41.2116 25.2783L39.4957 19.7744C39.4957 19.7744 39.3355 25.6645 39.3337 25.6681L38.1767 25.7019L36.5372 19.7228L36.3023 25.4687L34.5098 25.1092L34.2125 20.0467L33.4738 24.8564L32.4467 24.5858L31.1046 19.2066L30.8216 24.1106L28.4666 23.3968L27.8097 18.4144L27.2063 23.0532L24.9368 22.4587L23.7797 19.5537L23.4433 22.2059L22.345 22.0439L22.3219 17.3838L21.3019 19.4842L21.3892 21.9905L20.1111 21.9727L19.9082 19.575L18.8882 18.0371L18.1103 18.3664L18.7778 22.0795L17.8237 22.2415L16.8394 18.9538L16.1665 19.2528L16.0348 20.5861L15.2213 18.6405L19.2478 15.8494L20.4493 18.119L20.6611 15.5201L21.7647 15.2905C21.7647 15.2905 22.2738 16.6184 22.2738 16.5881L22.6708 15.1285L25.2287 14.9309L25.7146 15.7052L25.6559 18.4785L25.1148 19.0909L25.9425 21.5046L26.8485 14.8401L28.8511 14.7672L29.4865 21.3978L30.2163 14.6871L31.676 14.5108L32.639 20.2105L32.9362 14.21L33.9811 13.7614L34.702 17.884L35.0794 13.2061L35.9712 12.6792L37.5661 18.4768L37.5305 11.7215L38.6911 11.1412L39.7021 16.6131L40.8912 10.1729L42.0215 9.80443L42.7015 14.9113L44.5759 8.45694L42.5395 3.72561L36.3788 2.42797L24.3458 4.04958L22.2275 3.66687L21.1773 4.36286L18.0712 3.53693L15.5916 4.25606L14.6179 5.84919L7.84843 11.1822L4 19.8011V0H46.4289V42.4289H46.4271Z" fill="white"/>
<path d="M20.2054 7.26788L17.8202 6.63953C17.6938 6.70361 17.587 6.78193 17.498 6.87805C17.2399 7.15752 17.1117 7.60609 17.1117 8.22554C17.1117 8.84499 17.2417 9.29356 17.5016 9.5748C17.7614 9.85605 18.1726 9.99667 18.7369 9.99667C19.3012 9.99667 19.7124 9.85783 19.9705 9.57658C20.2286 9.29712 20.3567 8.84677 20.3567 8.22732C20.3567 7.84105 20.3069 7.52064 20.2072 7.2661L20.2054 7.26788ZM18.7778 9.23482C18.7636 9.26508 18.7209 9.26508 18.7084 9.23482C18.6354 9.06749 18.4717 8.64918 18.4717 8.2291C18.4717 7.81079 18.6354 7.3907 18.7084 7.22338C18.7209 7.19312 18.7654 7.19312 18.7778 7.22338C18.8508 7.3907 19.0128 7.80901 19.0128 8.2291C19.0128 8.64918 18.8508 9.06749 18.7761 9.23482H18.7778Z" fill="white"/>
</g>
<defs>
<filter id="filter0_d_610_37" x="0" y="0" width="224" height="50.6069" filterUnits="userSpaceOnUse" color-interpolation-filters="sRGB">
<feFlood flood-opacity="0" result="BackgroundImageFix"/>
<feColorMatrix in="SourceAlpha" type="matrix" values="0 0 0 0 0 0 0 0 0 0 0 0 0 0 0 0 0 0 127 0" result="hardAlpha"/>
<feOffset dy="4"/>
<feGaussianBlur stdDeviation="2"/>
<feComposite in2="hardAlpha" operator="out"/>
<feColorMatrix type="matrix" values="0 0 0 0 0 0 0 0 0 0 0 0 0 0 0 0 0 0 0.25 0"/>
<feBlend mode="normal" in2="BackgroundImageFix" result="effect1_dropShadow_610_37"/>
<feBlend mode="normal" in="SourceGraphic" in2="effect1_dropShadow_610_37" result="shape"/>
</filter>
</defs>
</svg>
