<svg width="149" height="50" viewBox="0 0 149 50" fill="none" xmlns="http://www.w3.org/2000/svg">
<path fill-rule="evenodd" clip-rule="evenodd" d="M148.774 39.7467H134.142L123.762 30.9141L113.42 39.7098H101.053L95.142 32.5748H74.7661L79.922 26.2456H89.9428L82.3111 16.9701L55.6652 49.2066H43.3048L51.0169 39.8451H38.1365L31.1733 20.4454L24.2658 39.6975H11.1998L0.225769 9.47843H10.2528L17.6307 30.0591L24.9838 9.57069H37.3629L44.6974 30.016L52.0258 9.56454H62.0838L51.0169 39.8451L53.4804 36.8558L76.0845 9.51533H88.5254L107.335 32.3226L116.384 24.591L87.7455 0H102.446L148.774 39.7467ZM134.26 21.4664L127.358 15.5862L134.247 9.75522L148.174 9.76752L134.26 21.4664Z" fill="white"/>
</svg>
