<svg width="177" height="46" viewBox="0 0 177 46" fill="none" xmlns="http://www.w3.org/2000/svg">
<path d="M77.3173 25.5177C76.6452 19.0558 73.4095 14.4476 67.8689 11.7326C60.6774 8.19959 48.9899 10.9671 46.0378 23.2343C45.3461 26.1032 45.3246 29.0188 46.2838 31.8651C46.3943 32.2518 46.4816 32.6496 46.6206 33.0229C50.3875 43.1361 62.4565 46.7386 71.2721 41.2786C73.1547 40.1114 73.7947 37.6123 72.8766 35.5502C71.8301 33.2123 69.3111 32.3362 66.9935 33.5539C65.4319 34.3739 63.8257 34.9704 62.0607 34.9048C59.1638 34.7978 56.8569 33.5408 55.0619 30.8914H56.1011C61.2116 30.8914 66.3166 30.8914 71.4164 30.8914C72.0691 30.8958 72.7205 30.833 73.3614 30.7037C75.5203 30.2629 76.884 28.7919 77.1693 26.6172C77.3055 26.2696 77.3564 25.8915 77.3173 25.5177ZM55.4826 22.4819C57.4934 18.1364 63.3264 17.3184 66.4337 20.9527C66.8582 21.4322 67.2088 21.9786 67.4732 22.572C67.7155 23.1349 67.737 23.4595 66.9614 23.4407C65.0931 23.3919 63.2178 23.4257 61.3548 23.4257H56.0066C55.1527 23.4238 55.0957 23.3205 55.4826 22.4819Z" fill="white"/>
<path d="M135.643 35.2606C133.663 32.5153 131.583 29.8569 129.404 27.2847C129.244 26.8148 129.612 26.5858 129.818 26.3165C131.647 23.9252 133.487 21.5435 135.338 19.1714C135.865 18.5293 136.239 17.7582 136.43 16.9245C136.62 16.0908 136.621 15.2194 136.433 14.3852C136.003 12.3091 134.746 10.9798 132.864 10.489C131.027 10.0076 129.357 10.489 128.083 12.078C126.544 13.9879 125.055 15.9437 123.547 17.8823C122.842 18.7932 122.842 18.7875 122.178 17.9052C120.73 15.9952 119.29 14.0853 117.812 12.1907C117.137 11.3433 116.236 10.7445 115.233 10.4776C114.231 10.2106 113.176 10.2887 112.216 10.701C111.326 11.0773 110.564 11.7404 110.033 12.6006C109.502 13.4609 109.227 14.477 109.245 15.512C109.034 16.9101 109.552 18.0522 110.341 19.0835C112.135 21.427 113.911 23.7839 115.759 26.0738C116.379 26.8377 116.314 27.3211 115.722 28.0488C113.921 30.2548 112.179 32.5218 110.436 34.7831C109.525 35.9653 108.942 37.3137 109.171 38.8893C109.506 41.1947 110.62 42.925 112.753 43.5897C114.936 44.2716 116.707 43.3986 118.115 41.5385C119.523 39.6781 120.934 37.8905 122.289 36.0321C122.721 35.4458 122.966 35.4343 123.404 36.0188C124.879 37.9879 126.387 39.9285 127.906 41.8574C129.623 44.0385 132.694 44.388 134.706 42.6654C136.783 40.8738 137.275 37.518 135.643 35.2606Z" fill="white"/>
<path d="M173.853 10.6671C173.544 10.4811 173.201 10.3757 172.848 10.3591C170.741 10.1946 168.683 10.4337 166.727 11.3157C166.102 11.6007 165.647 11.5778 165.039 11.1818C162.199 9.33559 158.293 11.3884 158.155 14.8664C158.03 18.0651 158.145 21.2773 158.155 24.4837C158.744 24.2286 159.324 23.9479 159.896 23.6419C159.327 23.9479 158.747 24.2286 158.155 24.4837C158.141 29.1459 158.118 33.8082 158.116 38.4704C158.116 42.5051 161.839 45.019 165.187 43.2398C166.896 42.3329 167.802 40.7891 167.825 38.7574C167.876 34.252 167.848 29.7485 167.862 25.2431C167.862 23.0487 169.014 21.5164 170.997 21.0439C171.427 20.9512 171.863 20.8916 172.301 20.866C174.647 20.6746 176.65 18.7137 176.952 16.307C177.267 13.8027 176.001 11.4917 173.853 10.6671Z" fill="white"/>
<path d="M89.2163 33.5391C89.2577 33.3275 89.2852 33.1128 89.2988 32.8968C89.2988 23.7059 89.2988 14.5192 89.2988 5.33695C89.307 4.63722 89.1909 3.94265 88.9572 3.29382C88.7236 2.64501 88.3771 2.05492 87.938 1.55807C87.4988 1.06121 86.9758 0.66753 86.3996 0.400026C85.8234 0.132519 85.2054 -0.00344666 84.5817 6.6378e-05C83.958 0.00357942 83.3414 0.146502 82.7675 0.420488C82.1936 0.694471 81.6741 1.09403 81.2394 1.5958C80.8049 2.0976 80.4636 2.69154 80.2358 3.34296C80.0079 3.99439 79.898 4.69022 79.9127 5.38984C79.9009 8.33601 79.9127 11.2841 79.9243 14.2302C79.9322 18.9643 79.9418 23.6983 79.953 28.4324C79.953 31.964 79.8805 35.4974 79.9428 39.0291C79.9866 41.592 81.9322 43.5767 84.4247 43.8073C86.5201 43.996 88.8124 42.1244 89.1625 39.7977C89.4705 37.726 89.3594 35.626 89.2163 33.5391Z" fill="white"/>
<path d="M152.418 26.7024C152.43 23.0385 152.448 19.3764 152.451 15.7145C152.451 12.7107 150.564 10.4717 147.919 10.3176C145.444 10.1711 143.135 12.3607 143.062 15.2523C142.952 19.6276 143.062 24.0277 143.062 28.4146C143.047 31.9435 142.94 35.476 143.047 38.9992C143.135 41.8925 145.273 43.8634 147.957 43.8197C150.242 43.7817 152.379 41.6225 152.419 39.0848C152.487 34.9586 152.418 30.8305 152.418 26.7024Z" fill="white"/>
<path d="M147.361 8.59175C148.485 8.57481 149.558 8.1176 150.349 7.31831C151.141 6.51902 151.587 5.44137 151.592 4.31677C151.598 3.19217 151.162 2.11029 150.378 1.30343C149.595 0.496563 148.526 0.0290631 147.402 0.00130868C146.831 -0.0127925 146.263 0.0871838 145.731 0.295384C145.199 0.503586 144.713 0.81583 144.303 1.21385C143.894 1.61184 143.567 2.08764 143.343 2.61334C143.119 3.13905 143.003 3.7041 143 4.27546C142.997 4.84681 143.109 5.41297 143.327 5.94081C143.546 6.46864 143.868 6.94753 144.274 7.34946C144.68 7.7514 145.162 8.0683 145.692 8.2816C146.222 8.49492 146.79 8.60035 147.361 8.59175Z" fill="white"/>
<path d="M99.3608 8.59175C100.485 8.57481 101.558 8.1176 102.349 7.31831C103.141 6.51902 103.587 5.44137 103.592 4.31677C103.598 3.19217 103.162 2.11029 102.378 1.30343C101.595 0.496563 100.526 0.0290631 99.4022 0.00130868C98.831 -0.0127925 98.2626 0.0871838 97.7307 0.295384C97.1985 0.503586 96.7133 0.81583 96.3034 1.21385C95.8936 1.61184 95.567 2.08764 95.3433 2.61334C95.1194 3.13905 95.0027 3.7041 95.0001 4.27546C94.9972 4.84681 95.1086 5.41297 95.3273 5.94081C95.546 6.46864 95.8678 6.94753 96.2739 7.34946C96.6799 7.7514 97.1621 8.0683 97.6923 8.2816C98.2223 8.49492 98.7896 8.60035 99.3608 8.59175Z" fill="white"/>
<path d="M104.824 15.7302C104.837 15.1606 104.761 14.5926 104.598 14.048C103.775 11.4561 101.421 9.97227 98.7705 10.3766C96.3248 10.7581 94.522 12.9628 94.522 15.6539C94.5121 22.4896 94.5121 29.3256 94.522 36.1626C94.522 36.6356 94.557 37.1161 94.5773 37.5796C94.1598 41.1633 96.4503 43.9232 99.7495 43.8162C102.548 43.9327 104.818 41.5773 104.82 38.518C104.823 30.9195 104.824 23.3236 104.824 15.7302Z" fill="white"/>
<path d="M20.6213 8.59637C23.8493 8.59637 27.005 9.55359 29.6889 11.347C32.3729 13.1404 34.4649 15.6894 35.7002 18.6716C36.9355 21.6539 37.2586 24.9356 36.6289 28.1016C35.9991 31.2676 34.4448 34.1757 32.1622 36.4583C29.8797 38.7408 26.9715 40.2953 23.8054 40.9251C20.6395 41.5549 17.3578 41.2316 14.3755 39.9963C11.3932 38.7609 8.84423 36.669 7.05085 33.9851C5.25745 31.301 4.30023 28.1455 4.30023 24.9175C4.3008 20.589 6.02052 16.438 9.0812 13.3774C12.1419 10.3167 16.2929 8.59693 20.6213 8.59637ZM20.6213 6.01459C16.8827 6.01459 13.228 7.12322 10.1195 9.20031C7.0109 11.2774 4.58807 14.2296 3.15736 17.6836C1.72664 21.1377 1.3523 24.9385 2.08166 28.6052C2.81104 32.2722 4.61138 35.6403 7.25499 38.2839C9.89861 40.9275 13.2668 42.7278 16.9336 43.4572C20.6003 44.1866 24.4011 43.8122 27.8553 42.3815C31.3093 40.9508 34.2615 38.528 36.3386 35.4193C38.4156 32.3109 39.5243 28.6562 39.5243 24.9175C39.5163 19.9065 37.5223 15.1032 33.979 11.5599C30.4357 8.01667 25.6323 6.02256 20.6213 6.01459Z" fill="#CBCBCB"/>
<path fill-rule="evenodd" clip-rule="evenodd" d="M31.5 12.5C29.9495 14.0389 27.026 17.7908 25.9284 23.1195C24.6343 29.4053 18.417 37.9397 16.3252 40.6831C19.8963 41.6368 23.6889 41.3658 27.084 39.9142C30.4791 38.4629 33.2762 35.9168 35.0186 32.6918C36.7609 29.4665 37.3457 25.753 36.6775 22.157C36.0092 18.5611 34.2883 14.9026 31.5 12.5Z" fill="#CBCBCB"/>
<path fill-rule="evenodd" clip-rule="evenodd" d="M34 14.9999C33.1107 18.0735 29.6472 28.0943 21.0162 29.7873C13.2188 31.3251 9.70797 34.6042 8.50001 35.9999C11.2499 39.1288 15.1778 40.8133 19.3102 41.1798C23.4423 41.5462 27.557 40.3031 30.8072 37.7065C34.0575 35.1097 36.1961 31.3567 36.7833 27.2198C37.3705 23.0828 36.3977 18.4103 34 14.9999Z" fill="white"/>
<path d="M20.6214 4.29614C16.5429 4.29614 12.5559 5.50557 9.16475 7.77148C5.77359 10.0374 3.1305 13.258 1.56972 17.026C0.0089358 20.7942 -0.399437 24.9404 0.396243 28.9406C1.19192 32.9407 3.15592 36.6151 6.03987 39.4991C8.92381 42.383 12.5982 44.347 16.5983 45.1427C20.5985 45.9382 24.7447 45.5299 28.5128 43.9692C32.2809 42.4084 35.5015 39.7654 37.7675 36.3741C40.0334 32.983 41.2427 28.9961 41.2427 24.9175C41.2427 19.4483 39.0702 14.2033 35.2029 10.336C31.3356 6.46874 26.0905 4.29614 20.6214 4.29614ZM20.6214 43.1456C17.0162 43.1456 13.492 42.0764 10.4944 40.0736C7.49686 38.0706 5.16052 35.2237 3.7809 31.8931C2.40125 28.5623 2.04029 24.8974 2.74361 21.3614C3.44695 17.8255 5.183 14.5776 7.73222 12.0284C10.2815 9.47913 13.5294 7.74308 17.0653 7.03975C20.6012 6.33643 24.2662 6.69739 27.597 8.07704C30.9277 9.45667 33.7745 11.793 35.7774 14.7906C37.7804 17.7882 38.8494 21.3124 38.8494 24.9175C38.8494 29.7519 36.929 34.3882 33.5106 37.8066C30.0921 41.225 25.4558 43.1456 20.6214 43.1456Z" fill="white"/>
</svg>
