<svg width="205" height="58" viewBox="0 0 205 58" fill="none" xmlns="http://www.w3.org/2000/svg">
<path d="M71.4905 25.8288C73.8265 27.8351 74.9944 30.6378 74.9944 34.235C74.9944 37.8667 73.8265 40.6732 71.4905 42.6585C69.1546 44.6437 65.9111 45.6373 61.7601 45.6412H54.961V57.0568H46.0347V22.8193H61.7601C65.9111 22.8193 69.1546 23.8225 71.4905 25.8288ZM66.026 34.235C66.026 31.0877 64.14 29.5141 60.3681 29.5122H54.961V38.9579H60.3585C64.1362 38.9579 66.026 37.3843 66.026 34.235Z" fill="white"/>
<path d="M79.5361 27.0999C78.7223 26.4261 78.3164 25.3616 78.3164 23.9086C78.3164 22.4555 78.7223 21.3414 79.5361 20.6656C80.3498 19.9898 81.6537 19.6528 83.4497 19.6528C85.2457 19.6528 86.5553 19.9898 87.3691 20.6656C88.1828 21.3414 88.5906 22.4211 88.5887 23.9086C88.5887 25.3616 88.1828 26.4261 87.3691 27.0999C86.5553 27.7738 85.2495 28.1107 83.4497 28.1127C81.6518 28.1127 80.3479 27.7757 79.5361 27.0999ZM87.865 57.0664H79.0459V31.1221H87.8688L87.865 57.0664Z" fill="white"/>
<path d="M117.705 32.9887C119.333 34.5815 120.147 36.8482 120.145 39.7868V57.0664H111.322V42.1167C111.322 38.9349 110.095 37.344 107.638 37.3421C106.254 37.3421 105.128 37.8264 104.264 38.7951C103.401 39.7638 102.968 41.2686 102.966 43.3093V57.0606H94.1432V31.1221H102.032L102.292 36.3102C103.058 34.4417 104.207 33.0232 105.739 32.0564C107.27 31.0896 109.078 30.6052 111.161 30.6033C113.897 30.6033 116.08 31.3978 117.705 32.9887Z" fill="white"/>
<path d="M152.894 51.7749L152.379 56.8079C151.341 57.2923 150.077 57.5335 148.589 57.5335C146.893 57.5335 145.474 57.2138 144.333 56.5763C143.211 55.9598 142.372 54.9299 141.999 53.7047C141.306 54.949 140.182 55.9062 138.625 56.5763C137.017 57.2616 135.286 57.6062 133.538 57.589C130.84 57.589 128.713 56.9745 127.154 55.7454C125.596 54.5164 124.819 52.7436 124.82 50.4272C124.82 46.5868 127.156 44.1823 131.826 43.2136L140.804 41.3452V40.6196C140.804 39.4097 140.467 38.4525 139.793 37.748C139.119 37.0434 138.208 36.6854 137.061 36.674C134.534 36.674 132.994 37.9719 132.441 40.566L124.974 38.8009C125.393 36.3409 126.812 34.1622 128.891 32.7819C131.02 31.3289 133.919 30.6014 137.586 30.6033C141.39 30.6033 144.339 31.4514 146.433 33.1457C148.528 34.8399 149.575 37.2789 149.574 40.4626V49.9658C149.574 51.3155 150.179 51.9893 151.391 51.9893C151.9 52.0027 152.409 51.93 152.894 51.7749ZM139.529 50.7622C140.377 50.0194 140.8 48.9205 140.8 47.4675V46.0144L136.588 46.897C135.514 47.1382 134.737 47.4598 134.252 47.8542C133.768 48.2486 133.525 48.8325 133.525 49.5925C133.525 50.3525 133.785 50.9326 134.304 51.3155C134.823 51.6983 135.497 51.8898 136.328 51.8898C137.612 51.884 138.681 51.5069 139.529 50.7622Z" fill="white"/>
<path d="M174.329 55.6152C173.316 56.268 172.201 56.7505 171.031 57.0415C169.722 57.4014 168.37 57.5852 167.011 57.5871C163.93 57.5871 161.559 56.9304 159.899 55.6152C158.239 54.3 157.393 52.1903 157.357 49.2842V37.3995H152.894V31.1221H157.357V25.3099L166.18 22.871V31.1221H173.913V37.3995H166.18V47.8312C166.18 50.1496 167.321 51.3097 169.605 51.3078C170.959 51.3365 172.286 50.9345 173.394 50.1591L174.329 55.6152Z" fill="white"/>
<path d="M205 51.7749L204.481 56.8079C203.443 57.2923 202.18 57.5335 200.692 57.5335C198.996 57.5335 197.577 57.2138 196.436 56.5763C195.314 55.9598 194.475 54.9299 194.102 53.7047C193.408 54.949 192.285 55.9062 190.728 56.5763C189.12 57.2617 187.389 57.6063 185.641 57.589C182.943 57.589 180.816 56.9745 179.257 55.7454C177.698 54.5164 176.921 52.7436 176.923 50.4272C176.923 46.5868 179.259 44.1823 183.929 43.2136L192.907 41.3452V40.6196C192.907 39.4097 192.57 38.4525 191.896 37.748C191.222 37.0435 190.312 36.6893 189.169 36.6835C186.644 36.6835 185.104 37.9815 184.551 40.5756L177.084 38.8105C177.503 36.3504 178.922 34.1718 181.001 32.7915C183.13 31.3385 186.027 30.611 189.694 30.6129C193.5 30.6129 196.451 31.461 198.544 33.1553C200.636 34.8495 201.684 37.2885 201.684 40.4722V49.9658C201.684 51.3155 202.289 51.9893 203.501 51.9893C204.008 52.0027 204.516 51.93 205 51.7749ZM191.635 50.7622C192.484 50.0194 192.909 48.9205 192.907 47.4675V46.0144L188.695 46.897C187.62 47.1382 186.843 47.4598 186.359 47.8542C185.874 48.2486 185.631 48.8325 185.631 49.5925C185.631 50.3525 185.891 50.9326 186.41 51.3155C186.929 51.6984 187.603 51.8898 188.434 51.8898C189.719 51.8841 190.785 51.5069 191.63 50.7622H191.635Z" fill="white"/>
<path d="M38.8204 19.8673C38.7285 20.1544 38.5944 20.4282 38.4202 20.6771C38.3493 20.7862 38.2689 20.8896 38.1789 20.9853C38.0353 21.1385 37.8802 21.284 37.7175 21.4161C37.662 21.4658 37.6007 21.5118 37.5394 21.5539C37.4245 21.6381 37.2867 21.7224 37.1507 21.8066C36.4098 22.2182 35.6094 22.5092 34.7765 22.6681C34.5659 22.7102 34.3457 22.7523 34.116 22.7829C33.8632 22.8251 33.6009 22.8576 33.3271 22.8768C33.1012 22.8882 32.8829 22.9074 32.6474 22.917V22.9246L31.6498 22.9131C31.6498 22.9131 31.6498 22.9208 31.6479 22.9246L33.1605 27.1689H30.9663L32.8982 31.2868H31.1444L32.7718 35.2688H30.9663L33.1605 39.6509L31.1022 39.515L33.2869 43.6348L31.4928 43.6272L32.8982 47.6264H31.2286L33.0246 51.8707H31.1865C31.1444 54.2771 31.219 56.7563 27.9947 57.5756C27.7305 57.6407 27.4567 57.658 27.1867 57.6273L26.9129 57.5967H26.9091C24.6038 57.2502 23.3018 55.4851 23.3209 51.8745H21.4522L23.0376 47.8772L21.4522 47.7508L22.9074 43.6042L14.3257 43.5659L15.9819 47.7719L14.1323 47.747L16.183 51.9913C15.4822 51.9913 14.7814 51.9894 14.0787 51.9874C14.0672 52.2708 14.0672 52.556 14.0577 52.8374C14.0577 53.1016 14.0481 53.3639 14.0251 53.6262C14.0155 53.8368 13.9945 54.0474 13.9619 54.256C13.9524 54.2981 13.9504 54.3517 13.9409 54.3939C13.9313 54.436 13.9313 54.4781 13.9198 54.5202C13.9102 54.5949 13.8873 54.6676 13.8777 54.7404C13.8777 54.75 13.8681 54.7729 13.8681 54.7825C13.8585 54.8476 13.8451 54.9088 13.826 54.972C13.8202 54.9893 13.8183 55.0065 13.8145 55.0237C13.7915 55.1194 13.7628 55.2152 13.7302 55.307C13.7302 55.3319 13.7226 55.3568 13.7092 55.3798C13.6881 55.4219 13.6671 55.4851 13.6575 55.5176C13.6479 55.5502 13.6249 55.5808 13.6154 55.6114C13.5828 55.6631 13.5637 55.7263 13.5311 55.7799C13.4794 55.8852 13.4162 55.9924 13.3531 56.0958C13.3224 56.1494 13.288 56.203 13.2497 56.2528C13.2171 56.2949 13.1865 56.3274 13.1558 56.3676C13.0716 56.4576 12.9778 56.5667 12.884 56.6625C12.7901 56.7524 12.6925 56.8348 12.5891 56.9152C12.5374 56.9439 12.4953 56.986 12.4417 57.0185C12.3689 57.0721 12.2847 57.1238 12.2004 57.1755C12.1468 57.2081 12.0855 57.2406 12.0319 57.2712C11.9802 57.3019 11.917 57.3344 11.8539 57.365C11.7581 57.4072 11.6624 57.4493 11.559 57.4914C11.4116 57.5469 11.2431 57.5967 11.0746 57.6484C10.9597 57.6809 10.8448 57.7116 10.7184 57.7422C10.5806 57.7747 10.4389 57.7843 10.2991 57.7747C10.1306 57.7652 9.97362 57.7422 9.81662 57.723C9.81279 57.7192 9.80896 57.7154 9.80513 57.7116C8.21977 57.4703 7.11691 56.5763 6.58079 54.8744C6.55207 54.748 6.50995 54.6217 6.4774 54.4858C6.42379 54.2771 6.38166 54.0684 6.35103 53.8559C6.25338 53.2242 6.21126 52.5867 6.22466 51.9491L4.09744 51.9434L5.71344 47.9308L4.09744 47.8044L5.63111 43.5276L4.46123 43.5219L6.32039 39.5246L4.22955 39.3982C4.59334 38.6994 5.64642 36.8597 5.84172 36.5381C6.04085 36.2011 6.27061 35.8776 6.47165 35.5828C6.61526 35.3607 6.77609 35.1559 6.92352 34.951H5.39751L7.2854 31.1126C4.53782 31.8611 3.21668 34.348 3.35262 36.2069C3.35262 36.2069 1.96256 36.2279 1.81513 36.2069C1.64663 34.3097 2.15211 31.662 5.28072 30.1592C3.8313 29.3915 2.46612 29.3494 1.2905 30.7469C1.21966 30.8273 1.15264 30.9116 1.09137 30.9996L0 29.9907C0.388682 29.5504 0.786938 29.1197 1.29242 28.7942C2.26891 28.1644 3.63408 27.9213 6.05042 28.7406C5.61004 27.5537 5.03181 26.8396 4.34826 26.4089C3.54026 25.8939 2.59441 25.8001 1.60643 25.8326L1.64855 24.2571C4.42102 24.2781 5.82832 25.1396 6.62674 26.3993C7.21455 27.3316 7.46729 28.4898 7.67791 29.6883L7.7028 30.2683L7.70854 30.2568L15.2486 31.2753L15.2658 31.2619L16.9508 27.1689H15.1548L16.9354 22.9246H14.902L17.2131 18.1654L15.2907 18.1232L18.7621 11.2275C18.7621 11.2275 18.7582 11.2198 18.7659 11.2198C22.3751 3.44155 23.8341 -0.548101 26.3232 0.0606847C27.5486 0.366992 27.9507 1.59222 27.8568 3.84549C30.4972 1.87747 32.1323 1.15573 33.3386 2.17229C35.1767 3.71723 32.8867 6.90091 28.2551 13.3315L32.6455 14.3078C32.9078 14.3595 33.1586 14.4342 33.3999 14.4973C36.7295 15.4316 38.5561 17.1143 38.872 18.7263C38.8701 18.732 38.8682 18.7359 38.8663 18.7416C38.9371 19.1149 38.9218 19.4997 38.8204 19.8654V19.8673Z" fill="white"/>
</svg>
